<?xml version="1.0" encoding="UTF-8" standalone="no"?>
<!-- Generator: Adobe Illustrator 13.0.2, SVG Export Plug-In . SVG Version: 6.00 Build 14948)  -->

<svg
   xmlns:dc="http://purl.org/dc/elements/1.1/"
   xmlns:cc="http://creativecommons.org/ns#"
   xmlns:rdf="http://www.w3.org/1999/02/22-rdf-syntax-ns#"
   xmlns:svg="http://www.w3.org/2000/svg"
   xmlns="http://www.w3.org/2000/svg"
   xmlns:sodipodi="http://sodipodi.sourceforge.net/DTD/sodipodi-0.dtd"
   xmlns:inkscape="http://www.inkscape.org/namespaces/inkscape"
   version="1.2"
   id="Layer_1"
   x="0px"
   y="0px"
   viewBox="0 0 133.888 120.51218"
   xml:space="preserve"
   inkscape:version="0.92.5 (2060ec1f9f, 2020-04-08)"
   sodipodi:docname="oshw-logo.svg"
   width="37.786171mm"
   height="34.011215mm"><metadata
     id="metadata4239"><rdf:RDF><cc:Work
         rdf:about=""><dc:format>image/svg+xml</dc:format><dc:type
           rdf:resource="http://purl.org/dc/dcmitype/StillImage" /><dc:title /></cc:Work></rdf:RDF></metadata><defs
     id="defs4237" /><sodipodi:namedview
     pagecolor="#ffffff"
     bordercolor="#666666"
     borderopacity="1"
     objecttolerance="10"
     gridtolerance="10"
     guidetolerance="10"
     inkscape:pageopacity="0"
     inkscape:pageshadow="2"
     inkscape:window-width="1920"
     inkscape:window-height="1016"
     id="namedview4235"
     showgrid="false"
     inkscape:zoom="4.5692122"
     inkscape:cx="45.824389"
     inkscape:cy="76.19382"
     inkscape:window-x="0"
     inkscape:window-y="27"
     inkscape:window-maximized="1"
     inkscape:current-layer="layer2"
     units="mm"
     fit-margin-top="0"
     fit-margin-left="0"
     fit-margin-right="0"
     fit-margin-bottom="0" /><g
     inkscape:groupmode="layer"
     id="layer2"
     inkscape:label="Cu"><path
       style="fill:#ff5e00;stroke-width:1;fill-opacity:1"
       d="m 58.291016,-1.8652344 c -4.832391,1.32367868 -2.538717,8.5480956 -4.354781,12.0812424 0.97077,7.876742 -6.48541,8.895407 -12.217485,11.317195 -5.416791,-2.87613 -9.894794,-8.279885 -15.744141,-10.029297 -5.558117,2.984251 -9.29211,9.164797 -14.085937,13.296875 -1.515205,4.69108 4.917698,7.985413 6.309998,12.052211 5.942235,4.661786 -0.112711,10.505841 -1.690858,15.908727 -5.671374,1.902139 -12.7886735,0.87718 -17.835937,4.089843 -1.4312061,6.179797 -0.2662528,13.154687 -0.3691406,19.521485 2.9271879,4.073733 9.6848333,2.025341 13.8813176,3.946117 5.890223,0.08901 8.488906,10.135501 7.582621,14.427465 -2.070036,4.722666 -7.849851,8.341761 -8.184642,13.622511 3.930506,5.01439 8.945256,9.76845 13.804688,13.88672 5.11622,0.0786 8.580882,-5.8289 13.119049,-7.69973 3.027269,-3.98348 8.088445,5.29797 10.935638,0.25637 3.788806,-10.07678 8.919815,-19.867614 12.035156,-30.089844 -1.91467,-3.813005 -7.190941,-4.706508 -8.960937,-9.009765 -7.094797,-10.710609 2.306014,-26.855613 15.316406,-25.486329 13.213322,-0.001 20.789819,17.363407 12.359375,27.19336 -1.602226,3.74133 -8.566751,4.049689 -7.599609,8.746094 4.408226,9.794181 7.745885,20.295794 12.701172,29.730464 4.106111,2.27561 7.919881,-6.01709 11.422974,-0.42401 4.183527,1.43011 7.564797,8.02867 12.377807,6.52167 4.12291,-4.79819 10.31452,-8.51921 13.28906,-14.08008 -1.24133,-5.86733 -8.2602,-10.134139 -9.0209,-15.746719 2.41448,-5.798873 3.35636,-13.393059 11.3364,-12.406719 3.74332,-1.256532 12.47788,0.140355 11.06364,-6.358278 -0.91749,-5.43561 1.64541,-11.943309 -0.86937,-16.919922 -5.36307,-2.836035 -13.23477,-1.328174 -17.90558,-4.639873 -2.45513,-5.613013 -6.72505,-11.40491 -0.49164,-16.161493 1.28647,-3.624645 8.87715,-8.204529 4.38743,-12.126502 -4.6489,-3.506244 -7.74454,-9.777268 -13.10935,-12.052601 -6.06547,1.654137 -10.676098,8.635008 -16.527004,9.652354 C 84.91068,19.206946 78.975143,16.933859 79.764113,9.187906 78.507069,5.4438539 79.90275,-3.2904152 73.404297,-1.875 c -5.037569,0.00685 -10.07655,-0.01347 -15.113281,0.00977 z"
       id="path4199-6"
       inkscape:connector-curvature="0" /></g><g
     inkscape:groupmode="layer"
     id="layer1"
     inkscape:label="Mask"
     transform="translate(-19.175,-7.6293945e-6)"><path
       style="fill:#0099b0"
       d="m 152.336,57.604 -16.439,-3.057 c -0.4,-0.075 -0.838,-0.451 -0.973,-0.837 l -5.039,-11.756 c -0.188,-0.363 -0.152,-0.933 0.08,-1.271 l 9.578,-13.96 c 0.229,-0.336 0.184,-0.847 -0.105,-1.136 L 127.475,13.624 c -0.289,-0.289 -0.799,-0.336 -1.135,-0.105 l -14.205,9.748 c -0.336,0.231 -0.912,0.272 -1.277,0.092 L 99.462,18.694 c -0.387,-0.128 -0.764,-0.561 -0.84,-0.962 L 95.457,0.729 C 95.383,0.328 94.988,0 94.58,0 L 77.66,0 C 77.253,0 76.858,0.328 76.784,0.729 L 73.62,17.732 c -0.076,0.401 -0.452,0.834 -0.84,0.962 l -11.397,4.665 c -0.366,0.18 -0.942,0.139 -1.277,-0.092 L 45.902,13.519 c -0.337,-0.231 -0.848,-0.184 -1.136,0.105 L 32.802,25.587 c -0.288,0.289 -0.336,0.8 -0.105,1.136 l 9.579,13.96 c 0.23,0.338 0.266,0.908 0.079,1.271 l -5.04,11.756 c -0.134,0.386 -0.571,0.762 -0.973,0.837 l -16.438,3.057 c -0.402,0.076 -0.729,0.47 -0.729,0.878 l 10e-4,16.919 c 0,0.408 0.328,0.805 0.729,0.878 l 16.035,2.984 c 0.401,0.073 0.83,0.454 0.952,0.843 l 5.006,12.505 c 0.179,0.367 0.137,0.941 -0.095,1.277 l -9.108,13.273 c -0.23,0.336 -0.183,0.848 0.105,1.137 l 11.965,11.963 c 0.288,0.287 0.799,0.334 1.136,0.105 l 13.038,-8.949 c 0.336,-0.23 0.899,-0.248 1.25,-0.043 l 5.75,3.07 c 0.364,0.186 0.789,0.029 0.945,-0.348 L 78.74,85.449 c 0.157,-0.377 0,-0.858 -0.348,-1.071 l -1.439,-0.881 c -0.266,-0.162 -0.627,-0.441 -0.91,-0.697 -5.191,-3.324 -8.635,-9.139 -8.635,-15.761 0,-10.334 8.378,-18.711 18.711,-18.711 10.333,0 18.71,8.377 18.71,18.711 0,6.622 -3.443,12.437 -8.635,15.761 -0.281,0.256 -0.643,0.535 -0.908,0.697 l -1.439,0.881 c -0.346,0.213 -0.504,0.694 -0.348,1.071 l 11.855,28.648 c 0.156,0.377 0.58,0.533 0.945,0.348 l 5.75,-3.07 c 0.352,-0.205 0.914,-0.188 1.25,0.043 l 13.039,8.949 c 0.336,0.229 0.848,0.182 1.135,-0.105 l 11.965,-11.963 c 0.289,-0.289 0.336,-0.801 0.105,-1.137 l -9.109,-13.273 c -0.23,-0.336 -0.273,-0.91 -0.094,-1.277 l 5.006,-12.505 c 0.123,-0.389 0.549,-0.77 0.951,-0.843 l 16.035,-2.984 c 0.4,-0.073 0.729,-0.47 0.729,-0.878 l 0.002,-16.919 c 0.001,-0.409 -0.327,-0.803 -0.727,-0.879"
       id="path4199"
       inkscape:connector-curvature="0" /><g
       id="g3359" /></g></svg>