M48
INCH,TZ
T1C0.0079
T2C0.0236
T3C0.0354
T4C0.0394
T5C0.0402
T6C0.0630
T7C0.1732
%
G90
G05
T1
X40103Y-22992
X40543Y-32283
X41024Y-32283
X41436Y-34326
X41436Y-34572
X41437Y-33228
X41437Y-34843
X41437Y-35669
X41496Y-31102
X41772Y-37480
X41929Y-31923
X42756Y-34326
X42756Y-34572
X42781Y-34882
X42874Y-37480
X43071Y-32677
X43071Y-32972
X43110Y-20456
X43110Y-20771
X43110Y-21086
X43110Y-21401
X43150Y-38278
X43307Y-36024
X43701Y-34449
X43825Y-21890
X44134Y-35179
X44207Y-21890
X44331Y-32677
X44331Y-32972
X44449Y-35276
X44577Y-34439
X44606Y-21890
X44957Y-23382
X45197Y-33071
X45787Y-21299
X45866Y-33071
X45866Y-33563
X45866Y-34055
X45866Y-34350
X45866Y-34744
X46260Y-34646
X46476Y-22047
X46850Y-22913
X46850Y-33268
X46850Y-34055
X47224Y-22047
X47244Y-31142
X47244Y-32283
X47244Y-33661
X47244Y-35039
X47244Y-36181
X47638Y-33268
X47638Y-34055
X47736Y-35039
X48031Y-22441
X48031Y-23031
X48031Y-24016
X48031Y-25098
X48166Y-21457
X48386Y-21201
X48386Y-26496
X48391Y-29213
X48583Y-26063
X48622Y-32874
X48622Y-33169
X48622Y-33563
X48622Y-33957
X48622Y-34350
X48740Y-31142
X48740Y-31890
X48780Y-34764
X48780Y-35118
X48780Y-35591
X48819Y-21772
X48819Y-33366
X48819Y-33760
X48819Y-34154
X48917Y-25492
X49016Y-27047
X49114Y-21752
X49114Y-22835
X49114Y-25295
X49291Y-29488
X49311Y-25492
X49409Y-21752
X49409Y-27992
X49409Y-28780
X49449Y-35433
X49508Y-25295
X49705Y-21752
X49705Y-25492
X49803Y-23524
X49902Y-21555
X50000Y-25787
X50079Y-35433
X50079Y-35984
X50098Y-21752
X50157Y-31890
X50157Y-32874
X50157Y-33937
X50157Y-34528
X50197Y-29488
X50295Y-21555
X50428Y-27717
X50492Y-21752
X50492Y-22835
X50517Y-27200
X50689Y-25295
X50703Y-34941
X50709Y-29488
X51120Y-36713
X51575Y-22835
X51575Y-23228
X51575Y-23622
X51575Y-24016
X51575Y-24409
X51772Y-22638
X51772Y-23031
X51772Y-23425
X51772Y-23819
X51772Y-24213
X51929Y-21850
X51969Y-22441
X52835Y-31614
X52835Y-31929
X52835Y-32244
X52835Y-32559
X52835Y-32874
X52835Y-34134
X52835Y-34764
X52835Y-35079
X52835Y-35394
X52835Y-35709
X53110Y-24921
X53110Y-27441
X53110Y-27756
X53110Y-28071
X53150Y-31614
X53150Y-31929
X53150Y-32874
X53150Y-33189
X53150Y-33504
X53150Y-33819
X53150Y-34764
X53150Y-35394
X53425Y-24921
X53425Y-25236
X53425Y-27441
X53425Y-27756
X53425Y-28071
X53425Y-28386
X53465Y-32559
X53465Y-34134
X53465Y-34449
X53465Y-34764
X53465Y-35394
X53740Y-22717
X53740Y-23346
X53740Y-23661
X53740Y-23976
X53740Y-24291
X53740Y-24921
X53740Y-25236
X53740Y-25551
X53740Y-26181
X53740Y-26496
X53740Y-26811
X53740Y-27126
X53740Y-27441
X53740Y-27756
X53740Y-28071
X53780Y-32559
X53780Y-33189
X53780Y-33819
X53780Y-34134
X53780Y-34449
X53780Y-34764
X53780Y-35394
X54055Y-23031
X54055Y-23346
X54055Y-23661
X54055Y-23976
X54055Y-24291
X54055Y-24606
X54055Y-24921
X54055Y-25236
X54055Y-25551
X54055Y-25866
X54055Y-26181
X54055Y-26496
X54055Y-26811
X54055Y-27126
X54055Y-27441
X54055Y-27756
X54055Y-28071
X54055Y-28386
X54331Y-35709
X54370Y-23031
X54370Y-23346
X54370Y-24291
X54370Y-24921
X54370Y-25551
X54370Y-26181
X54370Y-26811
X54370Y-27756
X54370Y-28071
X54685Y-23031
X54685Y-23346
X54685Y-23661
X54685Y-23976
X54685Y-24291
X54685Y-24921
X54685Y-25551
X54685Y-26181
X54685Y-26811
X54685Y-27126
X54685Y-27441
X54685Y-27756
X54685Y-28071
X54724Y-32559
X54724Y-33189
X54724Y-33504
X54724Y-34134
X54724Y-34764
X54724Y-35394
X54724Y-35709
X55000Y-23031
X55000Y-23346
X55000Y-24291
X55000Y-24606
X55000Y-24921
X55000Y-25236
X55000Y-25551
X55000Y-25866
X55000Y-26181
X55000Y-26496
X55000Y-26811
X55000Y-27756
X55039Y-33504
X55039Y-33819
X55039Y-34134
X55039Y-34449
X55039Y-35079
X55039Y-35394
X55197Y-31024
X55315Y-23031
X55315Y-23346
X55315Y-23661
X55315Y-23976
X55315Y-24291
X55315Y-24606
X55315Y-24921
X55315Y-25236
X55315Y-25551
X55315Y-25866
X55315Y-26181
X55315Y-26496
X55315Y-26811
X55315Y-27126
X55315Y-27441
X55315Y-27756
X55315Y-28071
X55354Y-32874
X55354Y-33504
X55354Y-33819
X55354Y-34134
X55354Y-34449
X55354Y-35079
X55354Y-35394
X55630Y-23031
X55630Y-23346
X55630Y-24291
X55630Y-24606
X55630Y-26496
X55630Y-26811
X55630Y-27756
X55669Y-31929
X55669Y-32244
X55669Y-32559
X55669Y-32874
X55669Y-35079
X55669Y-35394
X55945Y-22717
X55945Y-23031
X55945Y-23346
X55945Y-23661
X55945Y-23976
X55945Y-24291
X55945Y-24606
X55945Y-26496
X55945Y-26811
X55945Y-27126
X55945Y-27441
X55945Y-27756
X55945Y-28071
X55945Y-28386
X55945Y-28701
X56260Y-22717
X56260Y-23031
X56260Y-23346
X56260Y-24291
X56260Y-24606
X56260Y-24921
X56260Y-25236
X56260Y-25551
X56260Y-25866
X56260Y-26181
X56260Y-26496
X56260Y-26811
X56260Y-27756
X56417Y-33504
X56575Y-22717
X56575Y-23031
X56575Y-23346
X56575Y-23661
X56575Y-23976
X56575Y-24291
X56575Y-24606
X56575Y-26496
X56575Y-26811
X56575Y-27126
X56575Y-27441
X56575Y-27756
X56575Y-28071
X56575Y-28386
X56575Y-28701
X56575Y-34449
X56575Y-34764
X56811Y-31929
X56811Y-32244
X56811Y-32559
X56811Y-32874
X56811Y-33504
X56811Y-35079
X56811Y-35394
X56818Y-31622
X56889Y-28701
X56890Y-22717
X56890Y-23031
X56890Y-23346
X56890Y-24291
X56890Y-24606
X56890Y-26496
X56890Y-26811
X56890Y-27756
X56890Y-28386
X57126Y-31614
X57126Y-31929
X57126Y-32874
X57126Y-33504
X57126Y-34134
X57126Y-34449
X57126Y-34764
X57126Y-35709
X57205Y-23031
X57205Y-23346
X57205Y-23661
X57205Y-23976
X57205Y-24291
X57205Y-24606
X57205Y-24921
X57205Y-25236
X57205Y-25551
X57205Y-25866
X57205Y-26181
X57205Y-26496
X57205Y-26811
X57205Y-27126
X57205Y-27441
X57441Y-33504
X57441Y-33819
X57441Y-35079
X57441Y-35709
X57520Y-22717
X57520Y-23031
X57520Y-23346
X57520Y-24291
X57520Y-24606
X57520Y-24921
X57520Y-25236
X57520Y-25551
X57520Y-25866
X57520Y-26181
X57520Y-26496
X57520Y-26811
X57520Y-27756
X57520Y-28071
X57520Y-28701
X57756Y-32244
X57756Y-32559
X57756Y-33819
X57756Y-34449
X57756Y-34764
X57756Y-35394
X57756Y-35709
X57835Y-22717
X57835Y-23031
X57835Y-23346
X57835Y-23661
X57835Y-23976
X57835Y-24291
X57835Y-27126
X57835Y-27441
X57835Y-27756
X57835Y-28071
X57835Y-28386
X58031Y-33504
X58071Y-34134
X58071Y-34449
X58071Y-35394
X58150Y-22717
X58150Y-23031
X58150Y-23346
X58150Y-24291
X58150Y-25236
X58150Y-25866
X58150Y-26811
X58150Y-28071
X58150Y-28386
X58150Y-29516
X58324Y-29342
X58386Y-33504
X58386Y-34764
X58386Y-35079
X58465Y-23031
X58465Y-23346
X58465Y-23661
X58465Y-23976
X58465Y-24606
X58465Y-24921
X58465Y-25236
X58465Y-25866
X58465Y-26181
X58465Y-26496
X58465Y-26811
X58465Y-27126
X58465Y-27441
X58465Y-28071
X58465Y-28386
X58465Y-28701
X58701Y-32559
X58701Y-33189
X58701Y-33819
X58701Y-34134
X58701Y-34449
X58701Y-35394
X58701Y-35709
X58701Y-36024
X58780Y-22402
X58780Y-23346
X58780Y-24291
X58780Y-25236
X58780Y-25865
X58780Y-26811
X58780Y-28071
X58780Y-28386
X58780Y-28701
X58858Y-31260
X59016Y-33504
X59016Y-35079
X59094Y-22402
X59094Y-22717
X59094Y-23346
X59094Y-23661
X59094Y-25236
X59094Y-28071
X59094Y-30748
X59173Y-31260
X59331Y-32874
X59331Y-33504
X59331Y-33819
X59331Y-34134
X59331Y-34449
X59331Y-34764
X59331Y-35079
X59331Y-36102
X59409Y-24606
X59409Y-24921
X59409Y-25236
X59409Y-26496
X59409Y-28071
X59409Y-28386
X59646Y-31614
X59646Y-31929
X59646Y-32559
X59646Y-32874
X59646Y-34764
X59646Y-35079
X59646Y-35394
X59656Y-26496
X59724Y-30748
X59843Y-29134
X59921Y-27003
X59921Y-27249
X60000Y-35709
X60197Y-24291
X60315Y-33031
X60315Y-33268
X60354Y-33740
X60354Y-34213
X60748Y-22441
X60748Y-22677
X60925Y-34744
X60925Y-35138
X61122Y-34941
X61167Y-31654
X61319Y-34449
X61319Y-36024
X61496Y-25079
X61614Y-36024
X61614Y-36496
X61667Y-28543
X61667Y-31654
X61713Y-22441
X61811Y-36220
X61909Y-24291
X62008Y-34055
X62008Y-36024
X62167Y-31654
X62205Y-25394
X62205Y-36220
X62303Y-22441
X62360Y-33189
X62402Y-25591
X62402Y-36024
X62598Y-22441
X62598Y-25394
X62610Y-31772
X62610Y-33189
X62756Y-26850
X62795Y-25591
X62795Y-34213
X62860Y-33189
X62992Y-25394
X63071Y-35315
X63071Y-35827
X63110Y-31772
X63110Y-33189
X63189Y-25591
X63386Y-25394
X63583Y-25591
X63780Y-25394
X63814Y-25709
X64075Y-27165
X64110Y-31772
X64291Y-28504
X64402Y-25717
X64606Y-22087
X64606Y-27223
X64685Y-25689
X64764Y-24016
X64764Y-24311
X64921Y-28504
X65059Y-22539
X65157Y-24016
X65157Y-24311
X65197Y-28581
X65256Y-22343
X65394Y-25295
X65453Y-22539
X65551Y-24016
X65551Y-24331
X65709Y-25295
X65787Y-30945
X65945Y-24016
X65945Y-24331
X66024Y-25295
X66043Y-23130
X66339Y-24016
X66339Y-24311
X66339Y-25295
X66575Y-31732
X66634Y-22539
X66654Y-25295
X66693Y-28039
X66693Y-28728
X66693Y-29024
X66693Y-29417
X66732Y-24016
X66732Y-24311
X66732Y-26417
X66732Y-26673
X66831Y-21358
X66929Y-26870
X67008Y-27677
X67028Y-22343
X67126Y-27067
X67275Y-21311
X67323Y-27264
X67323Y-35138
X67323Y-35531
X67382Y-30315
X67449Y-21137
X67520Y-35335
X67520Y-35728
X67598Y-34094
X67717Y-24311
X67776Y-27362
X67776Y-30118
X67776Y-30413
X67815Y-21339
X67815Y-25295
X67876Y-27106
X67992Y-32224
X67992Y-32598
X68050Y-26932
X68071Y-22370
X68071Y-28728
X68110Y-24331
X68110Y-26260
X68110Y-26575
X68145Y-30315
X68307Y-25295
X68386Y-34094
X68391Y-30315
X68406Y-34449
X68504Y-24311
X68504Y-35433
X68563Y-27362
X68563Y-30118
X68602Y-36417
X68760Y-27165
X68799Y-25295
X68819Y-26417
X68996Y-22539
X68996Y-36417
X69016Y-31024
X69100Y-29803
X69449Y-33937
X69449Y-34252
X69488Y-35138
X69488Y-35531
X69488Y-35925
X69528Y-28039
X69528Y-28740
X69528Y-29409
X69646Y-32598
X69685Y-35335
X69685Y-35728
X69724Y-27165
X69875Y-31590
X69875Y-31836
X69882Y-31024
X69882Y-32126
X69882Y-32475
X69882Y-32721
X69882Y-33110
X70315Y-27913
X70748Y-29803
X71378Y-32106
X71378Y-32475
X71378Y-32721
X71378Y-32992
X71378Y-33263
X71378Y-33509
X71378Y-33819
X71614Y-22370
X71614Y-28728
T3
X45118Y-25870
X45118Y-26870
X45118Y-27870
X45118Y-28870
X45118Y-29870
X46118Y-25370
X46118Y-26370
X46118Y-27370
X46118Y-28370
X46118Y-29370
T4
X47120Y-18620
X47120Y-19620
X48120Y-18620
X48120Y-19620
X49120Y-18620
X49120Y-19620
X50120Y-18620
X50120Y-19620
X51120Y-18620
X51120Y-19620
X52120Y-18620
X52120Y-19620
X53120Y-18620
X53120Y-19620
X54120Y-18620
X54120Y-19620
X55120Y-18620
X55120Y-19620
X56120Y-18620
X56120Y-19620
X57120Y-18620
X57120Y-19620
X58120Y-18620
X58120Y-19620
X59120Y-18620
X59120Y-19620
X60120Y-18620
X60120Y-19620
X61120Y-18620
X61120Y-19620
X62120Y-18620
X62120Y-19620
X63120Y-18620
X63120Y-19620
X64120Y-18620
X64120Y-19620
X65120Y-18620
X65120Y-19620
X66120Y-18620
X66120Y-19620
X67120Y-18620
X67120Y-19620
X68120Y-18620
X68120Y-19620
X69120Y-18620
X69120Y-19620
X47120Y-37620
X47120Y-38620
X48120Y-37620
X48120Y-38620
X49120Y-37620
X49120Y-38620
X50120Y-37620
X50120Y-38620
X51120Y-37620
X51120Y-38620
X52120Y-37620
X52120Y-38620
X53120Y-37620
X53120Y-38620
X54120Y-37620
X54120Y-38620
X55120Y-37620
X55120Y-38620
X56120Y-37620
X56120Y-38620
X57120Y-37620
X57120Y-38620
X58120Y-37620
X58120Y-38620
X59120Y-37620
X59120Y-38620
X60120Y-37620
X60120Y-38620
X61120Y-37620
X61120Y-38620
X62120Y-37620
X62120Y-38620
X63120Y-37620
X63120Y-38620
X64120Y-37620
X64120Y-38620
X65120Y-37620
X65120Y-38620
X66120Y-37620
X66120Y-38620
X67120Y-37620
X67120Y-38620
X68120Y-37620
X68120Y-38620
X69120Y-37620
X69120Y-38620
T5
X41020Y-25010
X41020Y-26010
X41020Y-29230
X41020Y-30230
T6
X43819Y-24520
X43819Y-30720
T7
X65354Y-35039
T2
G00X40362Y-32748
M15
G01X39772Y-32748
M16
G05
G00X40362Y-36150
M15
G01X39772Y-36150
M16
G05
G00X42374Y-32748
M15
G01X41980Y-32748
M16
G05
G00X42374Y-36150
M15
G01X41980Y-36150
M16
G05
G00X70343Y-30898
M15
G01X70736Y-30898
M16
G05
G00X70343Y-34299
M15
G01X70736Y-34299
M16
G05
G00X72354Y-30898
M15
G01X72945Y-30898
M16
G05
G00X72354Y-34299
M15
G01X72945Y-34299
M16
G05
T0
M30
