G04 #@! TF.GenerationSoftware,KiCad,Pcbnew,5.1.5+dfsg1-2build2*
G04 #@! TF.CreationDate,2020-05-01T00:48:46-07:00*
G04 #@! TF.ProjectId,logicbone,6c6f6769-6362-46f6-9e65-2e6b69636164,rev?*
G04 #@! TF.SameCoordinates,Original*
G04 #@! TF.FileFunction,Legend,Bot*
G04 #@! TF.FilePolarity,Positive*
%FSLAX46Y46*%
G04 Gerber Fmt 4.6, Leading zero omitted, Abs format (unit mm)*
G04 Created by KiCad (PCBNEW 5.1.5+dfsg1-2build2) date 2020-05-01 00:48:46*
%MOMM*%
%LPD*%
G04 APERTURE LIST*
%ADD10C,0.120000*%
%ADD11C,0.100000*%
%ADD12C,0.150000*%
G04 APERTURE END LIST*
D10*
X135137221Y-61990000D02*
X135462779Y-61990000D01*
X135137221Y-63010000D02*
X135462779Y-63010000D01*
X125437221Y-89710000D02*
X125762779Y-89710000D01*
X125437221Y-88690000D02*
X125762779Y-88690000D01*
X161137221Y-67010000D02*
X161462779Y-67010000D01*
X161137221Y-65990000D02*
X161462779Y-65990000D01*
X125990000Y-62412779D02*
X125990000Y-62087221D01*
X127010000Y-62412779D02*
X127010000Y-62087221D01*
X122587221Y-60260000D02*
X122912779Y-60260000D01*
X122587221Y-59240000D02*
X122912779Y-59240000D01*
X125437221Y-91210000D02*
X125762779Y-91210000D01*
X125437221Y-90190000D02*
X125762779Y-90190000D01*
X153290000Y-90962779D02*
X153290000Y-90637221D01*
X154310000Y-90962779D02*
X154310000Y-90637221D01*
X162790000Y-70862779D02*
X162790000Y-70537221D01*
X163810000Y-70862779D02*
X163810000Y-70537221D01*
X165410000Y-70862779D02*
X165410000Y-70537221D01*
X164390000Y-70862779D02*
X164390000Y-70537221D01*
X119912779Y-60260000D02*
X119587221Y-60260000D01*
X119912779Y-59240000D02*
X119587221Y-59240000D01*
X125437221Y-86710000D02*
X125762779Y-86710000D01*
X125437221Y-85690000D02*
X125762779Y-85690000D01*
X125437221Y-87190000D02*
X125762779Y-87190000D01*
X125437221Y-88210000D02*
X125762779Y-88210000D01*
D11*
X149500000Y-88450000D02*
X150050000Y-88450000D01*
X150050000Y-88450000D02*
X150050000Y-88052500D01*
X148700000Y-88450000D02*
X148150000Y-88450000D01*
X148150000Y-88450000D02*
X148150000Y-88052500D01*
X150050000Y-85347500D02*
X150050000Y-84950000D01*
X150050000Y-84950000D02*
X149500000Y-84950000D01*
X148150000Y-85347500D02*
X148150000Y-84950000D01*
X148150000Y-84950000D02*
X148700000Y-84950000D01*
X148700000Y-88950000D02*
X148150000Y-88950000D01*
X148150000Y-88950000D02*
X148150000Y-89347500D01*
X149500000Y-88950000D02*
X150050000Y-88950000D01*
X150050000Y-88950000D02*
X150050000Y-89347500D01*
X148150000Y-92052500D02*
X148150000Y-92450000D01*
X148150000Y-92450000D02*
X148700000Y-92450000D01*
X150050000Y-92052500D02*
X150050000Y-92450000D01*
X150050000Y-92450000D02*
X149500000Y-92450000D01*
X144150000Y-85750000D02*
X144700000Y-85750000D01*
X144150000Y-86147500D02*
X144150000Y-85750000D01*
X146050000Y-85750000D02*
X145500000Y-85750000D01*
X146050000Y-86147500D02*
X146050000Y-85750000D01*
X144150000Y-89250000D02*
X144150000Y-88852500D01*
X144700000Y-89250000D02*
X144150000Y-89250000D01*
X146050000Y-89250000D02*
X146050000Y-88852500D01*
X145500000Y-89250000D02*
X146050000Y-89250000D01*
D10*
X133900000Y-58180000D02*
X133100000Y-58180000D01*
X133900000Y-61620000D02*
X133100000Y-61620000D01*
X127590000Y-72462779D02*
X127590000Y-72137221D01*
X128610000Y-72462779D02*
X128610000Y-72137221D01*
X147390000Y-83462779D02*
X147390000Y-83137221D01*
X148410000Y-83462779D02*
X148410000Y-83137221D01*
X164610000Y-67187221D02*
X164610000Y-67512779D01*
X163590000Y-67187221D02*
X163590000Y-67512779D01*
X125437221Y-91690000D02*
X125762779Y-91690000D01*
X125437221Y-92710000D02*
X125762779Y-92710000D01*
X128810000Y-90862779D02*
X128810000Y-90537221D01*
X127790000Y-90862779D02*
X127790000Y-90537221D01*
X114350000Y-91720000D02*
X115150000Y-91720000D01*
X114350000Y-88280000D02*
X115150000Y-88280000D01*
X161137221Y-67690000D02*
X161462779Y-67690000D01*
X161137221Y-68710000D02*
X161462779Y-68710000D01*
X169443503Y-78963604D02*
X168736396Y-78256497D01*
X167463604Y-80943503D02*
X166544365Y-80024264D01*
X125437221Y-84190000D02*
X125762779Y-84190000D01*
X125437221Y-85210000D02*
X125762779Y-85210000D01*
X165580000Y-66600000D02*
X165580000Y-65800000D01*
X169020000Y-66600000D02*
X169020000Y-65800000D01*
X167800000Y-68180000D02*
X167000000Y-68180000D01*
X167800000Y-71620000D02*
X167000000Y-71620000D01*
X163735000Y-63250000D02*
X163735000Y-60550000D01*
X161015000Y-62660000D02*
X160385000Y-62660000D01*
X161015000Y-60500000D02*
X161015000Y-61140000D01*
X161015000Y-63300000D02*
X161015000Y-62660000D01*
X174641422Y-83510000D02*
X175158578Y-83510000D01*
X174641422Y-82090000D02*
X175158578Y-82090000D01*
X173958578Y-87310000D02*
X173441422Y-87310000D01*
X173958578Y-85890000D02*
X173441422Y-85890000D01*
X156200000Y-70600000D02*
G75*
G03X156200000Y-70600000I-700000J0D01*
G01*
X125900000Y-74900000D02*
G75*
G03X125900000Y-74900000I-700000J0D01*
G01*
X129012500Y-69087500D02*
G75*
G03X129012500Y-69087500I-700000J0D01*
G01*
X128200000Y-74900000D02*
G75*
G03X128200000Y-74900000I-700000J0D01*
G01*
X176215000Y-75700000D02*
G75*
G03X176215000Y-75700000I-700000J0D01*
G01*
X171580000Y-75200000D02*
G75*
G03X171580000Y-75200000I-700000J0D01*
G01*
D12*
X156761904Y-71500380D02*
X156190476Y-71500380D01*
X156476190Y-72500380D02*
X156476190Y-71500380D01*
X155857142Y-72500380D02*
X155857142Y-71500380D01*
X155476190Y-71500380D01*
X155380952Y-71548000D01*
X155333333Y-71595619D01*
X155285714Y-71690857D01*
X155285714Y-71833714D01*
X155333333Y-71928952D01*
X155380952Y-71976571D01*
X155476190Y-72024190D01*
X155857142Y-72024190D01*
X154333333Y-72500380D02*
X154904761Y-72500380D01*
X154619047Y-72500380D02*
X154619047Y-71500380D01*
X154714285Y-71643238D01*
X154809523Y-71738476D01*
X154904761Y-71786095D01*
X126461904Y-72904380D02*
X125890476Y-72904380D01*
X126176190Y-73904380D02*
X126176190Y-72904380D01*
X125557142Y-73904380D02*
X125557142Y-72904380D01*
X125176190Y-72904380D01*
X125080952Y-72952000D01*
X125033333Y-72999619D01*
X124985714Y-73094857D01*
X124985714Y-73237714D01*
X125033333Y-73332952D01*
X125080952Y-73380571D01*
X125176190Y-73428190D01*
X125557142Y-73428190D01*
X124604761Y-72999619D02*
X124557142Y-72952000D01*
X124461904Y-72904380D01*
X124223809Y-72904380D01*
X124128571Y-72952000D01*
X124080952Y-72999619D01*
X124033333Y-73094857D01*
X124033333Y-73190095D01*
X124080952Y-73332952D01*
X124652380Y-73904380D01*
X124033333Y-73904380D01*
X129574404Y-67091880D02*
X129002976Y-67091880D01*
X129288690Y-68091880D02*
X129288690Y-67091880D01*
X128669642Y-68091880D02*
X128669642Y-67091880D01*
X128288690Y-67091880D01*
X128193452Y-67139500D01*
X128145833Y-67187119D01*
X128098214Y-67282357D01*
X128098214Y-67425214D01*
X128145833Y-67520452D01*
X128193452Y-67568071D01*
X128288690Y-67615690D01*
X128669642Y-67615690D01*
X127764880Y-67091880D02*
X127145833Y-67091880D01*
X127479166Y-67472833D01*
X127336309Y-67472833D01*
X127241071Y-67520452D01*
X127193452Y-67568071D01*
X127145833Y-67663309D01*
X127145833Y-67901404D01*
X127193452Y-67996642D01*
X127241071Y-68044261D01*
X127336309Y-68091880D01*
X127622023Y-68091880D01*
X127717261Y-68044261D01*
X127764880Y-67996642D01*
X128761904Y-75800380D02*
X128190476Y-75800380D01*
X128476190Y-76800380D02*
X128476190Y-75800380D01*
X127857142Y-76800380D02*
X127857142Y-75800380D01*
X127476190Y-75800380D01*
X127380952Y-75848000D01*
X127333333Y-75895619D01*
X127285714Y-75990857D01*
X127285714Y-76133714D01*
X127333333Y-76228952D01*
X127380952Y-76276571D01*
X127476190Y-76324190D01*
X127857142Y-76324190D01*
X126428571Y-76133714D02*
X126428571Y-76800380D01*
X126666666Y-75752761D02*
X126904761Y-76467047D01*
X126285714Y-76467047D01*
X176776904Y-76600380D02*
X176205476Y-76600380D01*
X176491190Y-77600380D02*
X176491190Y-76600380D01*
X175872142Y-77600380D02*
X175872142Y-76600380D01*
X175491190Y-76600380D01*
X175395952Y-76648000D01*
X175348333Y-76695619D01*
X175300714Y-76790857D01*
X175300714Y-76933714D01*
X175348333Y-77028952D01*
X175395952Y-77076571D01*
X175491190Y-77124190D01*
X175872142Y-77124190D01*
X174395952Y-76600380D02*
X174872142Y-76600380D01*
X174919761Y-77076571D01*
X174872142Y-77028952D01*
X174776904Y-76981333D01*
X174538809Y-76981333D01*
X174443571Y-77028952D01*
X174395952Y-77076571D01*
X174348333Y-77171809D01*
X174348333Y-77409904D01*
X174395952Y-77505142D01*
X174443571Y-77552761D01*
X174538809Y-77600380D01*
X174776904Y-77600380D01*
X174872142Y-77552761D01*
X174919761Y-77505142D01*
X172141904Y-76100380D02*
X171570476Y-76100380D01*
X171856190Y-77100380D02*
X171856190Y-76100380D01*
X171237142Y-77100380D02*
X171237142Y-76100380D01*
X170856190Y-76100380D01*
X170760952Y-76148000D01*
X170713333Y-76195619D01*
X170665714Y-76290857D01*
X170665714Y-76433714D01*
X170713333Y-76528952D01*
X170760952Y-76576571D01*
X170856190Y-76624190D01*
X171237142Y-76624190D01*
X169808571Y-76100380D02*
X169999047Y-76100380D01*
X170094285Y-76148000D01*
X170141904Y-76195619D01*
X170237142Y-76338476D01*
X170284761Y-76528952D01*
X170284761Y-76909904D01*
X170237142Y-77005142D01*
X170189523Y-77052761D01*
X170094285Y-77100380D01*
X169903809Y-77100380D01*
X169808571Y-77052761D01*
X169760952Y-77005142D01*
X169713333Y-76909904D01*
X169713333Y-76671809D01*
X169760952Y-76576571D01*
X169808571Y-76528952D01*
X169903809Y-76481333D01*
X170094285Y-76481333D01*
X170189523Y-76528952D01*
X170237142Y-76576571D01*
X170284761Y-76671809D01*
M02*
