G04 #@! TF.GenerationSoftware,KiCad,Pcbnew,5.1.5+dfsg1-2build2*
G04 #@! TF.CreationDate,2020-05-01T00:48:46-07:00*
G04 #@! TF.ProjectId,logicbone,6c6f6769-6362-46f6-9e65-2e6b69636164,rev?*
G04 #@! TF.SameCoordinates,Original*
G04 #@! TF.FileFunction,Legend,Top*
G04 #@! TF.FilePolarity,Positive*
%FSLAX46Y46*%
G04 Gerber Fmt 4.6, Leading zero omitted, Abs format (unit mm)*
G04 Created by KiCad (PCBNEW 5.1.5+dfsg1-2build2) date 2020-05-01 00:48:46*
%MOMM*%
%LPD*%
G04 APERTURE LIST*
%ADD10C,0.150000*%
%ADD11C,0.120000*%
%ADD12C,0.200000*%
%ADD13C,0.100000*%
G04 APERTURE END LIST*
D10*
X110947619Y-93890476D02*
X111947619Y-93890476D01*
X111947619Y-94271428D01*
X111900000Y-94366666D01*
X111852380Y-94414285D01*
X111757142Y-94461904D01*
X111614285Y-94461904D01*
X111519047Y-94414285D01*
X111471428Y-94366666D01*
X111423809Y-94271428D01*
X111423809Y-93890476D01*
X111947619Y-95080952D02*
X111947619Y-95271428D01*
X111900000Y-95366666D01*
X111804761Y-95461904D01*
X111614285Y-95509523D01*
X111280952Y-95509523D01*
X111090476Y-95461904D01*
X110995238Y-95366666D01*
X110947619Y-95271428D01*
X110947619Y-95080952D01*
X110995238Y-94985714D01*
X111090476Y-94890476D01*
X111280952Y-94842857D01*
X111614285Y-94842857D01*
X111804761Y-94890476D01*
X111900000Y-94985714D01*
X111947619Y-95080952D01*
X111947619Y-95842857D02*
X110947619Y-96080952D01*
X111661904Y-96271428D01*
X110947619Y-96461904D01*
X111947619Y-96700000D01*
X111471428Y-97080952D02*
X111471428Y-97414285D01*
X110947619Y-97557142D02*
X110947619Y-97080952D01*
X111947619Y-97080952D01*
X111947619Y-97557142D01*
X110947619Y-98557142D02*
X111423809Y-98223809D01*
X110947619Y-97985714D02*
X111947619Y-97985714D01*
X111947619Y-98366666D01*
X111900000Y-98461904D01*
X111852380Y-98509523D01*
X111757142Y-98557142D01*
X111614285Y-98557142D01*
X111519047Y-98509523D01*
X111471428Y-98461904D01*
X111423809Y-98366666D01*
X111423809Y-97985714D01*
X110947619Y-46255476D02*
X111947619Y-46255476D01*
X111947619Y-46636428D01*
X111900000Y-46731666D01*
X111852380Y-46779285D01*
X111757142Y-46826904D01*
X111614285Y-46826904D01*
X111519047Y-46779285D01*
X111471428Y-46731666D01*
X111423809Y-46636428D01*
X111423809Y-46255476D01*
X110947619Y-47826904D02*
X111423809Y-47493571D01*
X110947619Y-47255476D02*
X111947619Y-47255476D01*
X111947619Y-47636428D01*
X111900000Y-47731666D01*
X111852380Y-47779285D01*
X111757142Y-47826904D01*
X111614285Y-47826904D01*
X111519047Y-47779285D01*
X111471428Y-47731666D01*
X111423809Y-47636428D01*
X111423809Y-47255476D01*
X111947619Y-48445952D02*
X111947619Y-48636428D01*
X111900000Y-48731666D01*
X111804761Y-48826904D01*
X111614285Y-48874523D01*
X111280952Y-48874523D01*
X111090476Y-48826904D01*
X110995238Y-48731666D01*
X110947619Y-48636428D01*
X110947619Y-48445952D01*
X110995238Y-48350714D01*
X111090476Y-48255476D01*
X111280952Y-48207857D01*
X111614285Y-48207857D01*
X111804761Y-48255476D01*
X111900000Y-48350714D01*
X111947619Y-48445952D01*
X111900000Y-49826904D02*
X111947619Y-49731666D01*
X111947619Y-49588809D01*
X111900000Y-49445952D01*
X111804761Y-49350714D01*
X111709523Y-49303095D01*
X111519047Y-49255476D01*
X111376190Y-49255476D01*
X111185714Y-49303095D01*
X111090476Y-49350714D01*
X110995238Y-49445952D01*
X110947619Y-49588809D01*
X110947619Y-49684047D01*
X110995238Y-49826904D01*
X111042857Y-49874523D01*
X111376190Y-49874523D01*
X111376190Y-49684047D01*
X110947619Y-50303095D02*
X111947619Y-50303095D01*
X110947619Y-50874523D01*
X111947619Y-50874523D01*
X111471428Y-56392857D02*
X111423809Y-56535714D01*
X111376190Y-56583333D01*
X111280952Y-56630952D01*
X111138095Y-56630952D01*
X111042857Y-56583333D01*
X110995238Y-56535714D01*
X110947619Y-56440476D01*
X110947619Y-56059523D01*
X111947619Y-56059523D01*
X111947619Y-56392857D01*
X111900000Y-56488095D01*
X111852380Y-56535714D01*
X111757142Y-56583333D01*
X111661904Y-56583333D01*
X111566666Y-56535714D01*
X111519047Y-56488095D01*
X111471428Y-56392857D01*
X111471428Y-56059523D01*
X111947619Y-57250000D02*
X111947619Y-57440476D01*
X111900000Y-57535714D01*
X111804761Y-57630952D01*
X111614285Y-57678571D01*
X111280952Y-57678571D01*
X111090476Y-57630952D01*
X110995238Y-57535714D01*
X110947619Y-57440476D01*
X110947619Y-57250000D01*
X110995238Y-57154761D01*
X111090476Y-57059523D01*
X111280952Y-57011904D01*
X111614285Y-57011904D01*
X111804761Y-57059523D01*
X111900000Y-57154761D01*
X111947619Y-57250000D01*
X111947619Y-58297619D02*
X111947619Y-58488095D01*
X111900000Y-58583333D01*
X111804761Y-58678571D01*
X111614285Y-58726190D01*
X111280952Y-58726190D01*
X111090476Y-58678571D01*
X110995238Y-58583333D01*
X110947619Y-58488095D01*
X110947619Y-58297619D01*
X110995238Y-58202380D01*
X111090476Y-58107142D01*
X111280952Y-58059523D01*
X111614285Y-58059523D01*
X111804761Y-58107142D01*
X111900000Y-58202380D01*
X111947619Y-58297619D01*
X111947619Y-59011904D02*
X111947619Y-59583333D01*
X110947619Y-59297619D02*
X111947619Y-59297619D01*
D11*
X184394047Y-74332142D02*
X183744047Y-74332142D01*
X184394047Y-74053571D02*
X184053571Y-74053571D01*
X183991666Y-74084523D01*
X183960714Y-74146428D01*
X183960714Y-74239285D01*
X183991666Y-74301190D01*
X184022619Y-74332142D01*
X183960714Y-73836904D02*
X183960714Y-73589285D01*
X183744047Y-73744047D02*
X184301190Y-73744047D01*
X184363095Y-73713095D01*
X184394047Y-73651190D01*
X184394047Y-73589285D01*
X183960714Y-73465476D02*
X183960714Y-73217857D01*
X183744047Y-73372619D02*
X184301190Y-73372619D01*
X184363095Y-73341666D01*
X184394047Y-73279761D01*
X184394047Y-73217857D01*
X183960714Y-73001190D02*
X184610714Y-73001190D01*
X183991666Y-73001190D02*
X183960714Y-72939285D01*
X183960714Y-72815476D01*
X183991666Y-72753571D01*
X184022619Y-72722619D01*
X184084523Y-72691666D01*
X184270238Y-72691666D01*
X184332142Y-72722619D01*
X184363095Y-72753571D01*
X184394047Y-72815476D01*
X184394047Y-72939285D01*
X184363095Y-73001190D01*
X184363095Y-72444047D02*
X184394047Y-72382142D01*
X184394047Y-72258333D01*
X184363095Y-72196428D01*
X184301190Y-72165476D01*
X184270238Y-72165476D01*
X184208333Y-72196428D01*
X184177380Y-72258333D01*
X184177380Y-72351190D01*
X184146428Y-72413095D01*
X184084523Y-72444047D01*
X184053571Y-72444047D01*
X183991666Y-72413095D01*
X183960714Y-72351190D01*
X183960714Y-72258333D01*
X183991666Y-72196428D01*
X184332142Y-71886904D02*
X184363095Y-71855952D01*
X184394047Y-71886904D01*
X184363095Y-71917857D01*
X184332142Y-71886904D01*
X184394047Y-71886904D01*
X183991666Y-71886904D02*
X184022619Y-71855952D01*
X184053571Y-71886904D01*
X184022619Y-71917857D01*
X183991666Y-71886904D01*
X184053571Y-71886904D01*
X183713095Y-71113095D02*
X184548809Y-71670238D01*
X183713095Y-70432142D02*
X184548809Y-70989285D01*
X183960714Y-69936904D02*
X184486904Y-69936904D01*
X184548809Y-69967857D01*
X184579761Y-69998809D01*
X184610714Y-70060714D01*
X184610714Y-70153571D01*
X184579761Y-70215476D01*
X184363095Y-69936904D02*
X184394047Y-69998809D01*
X184394047Y-70122619D01*
X184363095Y-70184523D01*
X184332142Y-70215476D01*
X184270238Y-70246428D01*
X184084523Y-70246428D01*
X184022619Y-70215476D01*
X183991666Y-70184523D01*
X183960714Y-70122619D01*
X183960714Y-69998809D01*
X183991666Y-69936904D01*
X184394047Y-69627380D02*
X183960714Y-69627380D01*
X183744047Y-69627380D02*
X183775000Y-69658333D01*
X183805952Y-69627380D01*
X183775000Y-69596428D01*
X183744047Y-69627380D01*
X183805952Y-69627380D01*
X183960714Y-69410714D02*
X183960714Y-69163095D01*
X183744047Y-69317857D02*
X184301190Y-69317857D01*
X184363095Y-69286904D01*
X184394047Y-69225000D01*
X184394047Y-69163095D01*
X184394047Y-68946428D02*
X183744047Y-68946428D01*
X184394047Y-68667857D02*
X184053571Y-68667857D01*
X183991666Y-68698809D01*
X183960714Y-68760714D01*
X183960714Y-68853571D01*
X183991666Y-68915476D01*
X184022619Y-68946428D01*
X183960714Y-68079761D02*
X184394047Y-68079761D01*
X183960714Y-68358333D02*
X184301190Y-68358333D01*
X184363095Y-68327380D01*
X184394047Y-68265476D01*
X184394047Y-68172619D01*
X184363095Y-68110714D01*
X184332142Y-68079761D01*
X184394047Y-67770238D02*
X183744047Y-67770238D01*
X183991666Y-67770238D02*
X183960714Y-67708333D01*
X183960714Y-67584523D01*
X183991666Y-67522619D01*
X184022619Y-67491666D01*
X184084523Y-67460714D01*
X184270238Y-67460714D01*
X184332142Y-67491666D01*
X184363095Y-67522619D01*
X184394047Y-67584523D01*
X184394047Y-67708333D01*
X184363095Y-67770238D01*
X184332142Y-67182142D02*
X184363095Y-67151190D01*
X184394047Y-67182142D01*
X184363095Y-67213095D01*
X184332142Y-67182142D01*
X184394047Y-67182142D01*
X184363095Y-66594047D02*
X184394047Y-66655952D01*
X184394047Y-66779761D01*
X184363095Y-66841666D01*
X184332142Y-66872619D01*
X184270238Y-66903571D01*
X184084523Y-66903571D01*
X184022619Y-66872619D01*
X183991666Y-66841666D01*
X183960714Y-66779761D01*
X183960714Y-66655952D01*
X183991666Y-66594047D01*
X184394047Y-66222619D02*
X184363095Y-66284523D01*
X184332142Y-66315476D01*
X184270238Y-66346428D01*
X184084523Y-66346428D01*
X184022619Y-66315476D01*
X183991666Y-66284523D01*
X183960714Y-66222619D01*
X183960714Y-66129761D01*
X183991666Y-66067857D01*
X184022619Y-66036904D01*
X184084523Y-66005952D01*
X184270238Y-66005952D01*
X184332142Y-66036904D01*
X184363095Y-66067857D01*
X184394047Y-66129761D01*
X184394047Y-66222619D01*
X184394047Y-65727380D02*
X183960714Y-65727380D01*
X184022619Y-65727380D02*
X183991666Y-65696428D01*
X183960714Y-65634523D01*
X183960714Y-65541666D01*
X183991666Y-65479761D01*
X184053571Y-65448809D01*
X184394047Y-65448809D01*
X184053571Y-65448809D02*
X183991666Y-65417857D01*
X183960714Y-65355952D01*
X183960714Y-65263095D01*
X183991666Y-65201190D01*
X184053571Y-65170238D01*
X184394047Y-65170238D01*
X183713095Y-64396428D02*
X184548809Y-64953571D01*
X184394047Y-64086904D02*
X184363095Y-64148809D01*
X184332142Y-64179761D01*
X184270238Y-64210714D01*
X184084523Y-64210714D01*
X184022619Y-64179761D01*
X183991666Y-64148809D01*
X183960714Y-64086904D01*
X183960714Y-63994047D01*
X183991666Y-63932142D01*
X184022619Y-63901190D01*
X184084523Y-63870238D01*
X184270238Y-63870238D01*
X184332142Y-63901190D01*
X184363095Y-63932142D01*
X184394047Y-63994047D01*
X184394047Y-64086904D01*
X184363095Y-63622619D02*
X184394047Y-63560714D01*
X184394047Y-63436904D01*
X184363095Y-63375000D01*
X184301190Y-63344047D01*
X184270238Y-63344047D01*
X184208333Y-63375000D01*
X184177380Y-63436904D01*
X184177380Y-63529761D01*
X184146428Y-63591666D01*
X184084523Y-63622619D01*
X184053571Y-63622619D01*
X183991666Y-63591666D01*
X183960714Y-63529761D01*
X183960714Y-63436904D01*
X183991666Y-63375000D01*
X184394047Y-63065476D02*
X183744047Y-63065476D01*
X184146428Y-63003571D02*
X184394047Y-62817857D01*
X183960714Y-62817857D02*
X184208333Y-63065476D01*
X184394047Y-62539285D02*
X183960714Y-62539285D01*
X183744047Y-62539285D02*
X183775000Y-62570238D01*
X183805952Y-62539285D01*
X183775000Y-62508333D01*
X183744047Y-62539285D01*
X183805952Y-62539285D01*
X184394047Y-62229761D02*
X183960714Y-62229761D01*
X184084523Y-62229761D02*
X184022619Y-62198809D01*
X183991666Y-62167857D01*
X183960714Y-62105952D01*
X183960714Y-62044047D01*
X184394047Y-61827380D02*
X183744047Y-61827380D01*
X183991666Y-61827380D02*
X183960714Y-61765476D01*
X183960714Y-61641666D01*
X183991666Y-61579761D01*
X184022619Y-61548809D01*
X184084523Y-61517857D01*
X184270238Y-61517857D01*
X184332142Y-61548809D01*
X184363095Y-61579761D01*
X184394047Y-61641666D01*
X184394047Y-61765476D01*
X184363095Y-61827380D01*
X183960714Y-61301190D02*
X184394047Y-61146428D01*
X183960714Y-60991666D02*
X184394047Y-61146428D01*
X184548809Y-61208333D01*
X184579761Y-61239285D01*
X184610714Y-61301190D01*
X183713095Y-60279761D02*
X184548809Y-60836904D01*
X184394047Y-59970238D02*
X184363095Y-60032142D01*
X184301190Y-60063095D01*
X183744047Y-60063095D01*
X184394047Y-59629761D02*
X184363095Y-59691666D01*
X184332142Y-59722619D01*
X184270238Y-59753571D01*
X184084523Y-59753571D01*
X184022619Y-59722619D01*
X183991666Y-59691666D01*
X183960714Y-59629761D01*
X183960714Y-59536904D01*
X183991666Y-59475000D01*
X184022619Y-59444047D01*
X184084523Y-59413095D01*
X184270238Y-59413095D01*
X184332142Y-59444047D01*
X184363095Y-59475000D01*
X184394047Y-59536904D01*
X184394047Y-59629761D01*
X183960714Y-58855952D02*
X184486904Y-58855952D01*
X184548809Y-58886904D01*
X184579761Y-58917857D01*
X184610714Y-58979761D01*
X184610714Y-59072619D01*
X184579761Y-59134523D01*
X184363095Y-58855952D02*
X184394047Y-58917857D01*
X184394047Y-59041666D01*
X184363095Y-59103571D01*
X184332142Y-59134523D01*
X184270238Y-59165476D01*
X184084523Y-59165476D01*
X184022619Y-59134523D01*
X183991666Y-59103571D01*
X183960714Y-59041666D01*
X183960714Y-58917857D01*
X183991666Y-58855952D01*
X184394047Y-58546428D02*
X183960714Y-58546428D01*
X183744047Y-58546428D02*
X183775000Y-58577380D01*
X183805952Y-58546428D01*
X183775000Y-58515476D01*
X183744047Y-58546428D01*
X183805952Y-58546428D01*
X184363095Y-57958333D02*
X184394047Y-58020238D01*
X184394047Y-58144047D01*
X184363095Y-58205952D01*
X184332142Y-58236904D01*
X184270238Y-58267857D01*
X184084523Y-58267857D01*
X184022619Y-58236904D01*
X183991666Y-58205952D01*
X183960714Y-58144047D01*
X183960714Y-58020238D01*
X183991666Y-57958333D01*
X184394047Y-57679761D02*
X183744047Y-57679761D01*
X183991666Y-57679761D02*
X183960714Y-57617857D01*
X183960714Y-57494047D01*
X183991666Y-57432142D01*
X184022619Y-57401190D01*
X184084523Y-57370238D01*
X184270238Y-57370238D01*
X184332142Y-57401190D01*
X184363095Y-57432142D01*
X184394047Y-57494047D01*
X184394047Y-57617857D01*
X184363095Y-57679761D01*
X184394047Y-56998809D02*
X184363095Y-57060714D01*
X184332142Y-57091666D01*
X184270238Y-57122619D01*
X184084523Y-57122619D01*
X184022619Y-57091666D01*
X183991666Y-57060714D01*
X183960714Y-56998809D01*
X183960714Y-56905952D01*
X183991666Y-56844047D01*
X184022619Y-56813095D01*
X184084523Y-56782142D01*
X184270238Y-56782142D01*
X184332142Y-56813095D01*
X184363095Y-56844047D01*
X184394047Y-56905952D01*
X184394047Y-56998809D01*
X183960714Y-56503571D02*
X184394047Y-56503571D01*
X184022619Y-56503571D02*
X183991666Y-56472619D01*
X183960714Y-56410714D01*
X183960714Y-56317857D01*
X183991666Y-56255952D01*
X184053571Y-56225000D01*
X184394047Y-56225000D01*
X184363095Y-55667857D02*
X184394047Y-55729761D01*
X184394047Y-55853571D01*
X184363095Y-55915476D01*
X184301190Y-55946428D01*
X184053571Y-55946428D01*
X183991666Y-55915476D01*
X183960714Y-55853571D01*
X183960714Y-55729761D01*
X183991666Y-55667857D01*
X184053571Y-55636904D01*
X184115476Y-55636904D01*
X184177380Y-55946428D01*
D10*
X181052380Y-72523809D02*
X181052380Y-73000000D01*
X180052380Y-73000000D01*
X181052380Y-72047619D02*
X181004761Y-72142857D01*
X180957142Y-72190476D01*
X180861904Y-72238095D01*
X180576190Y-72238095D01*
X180480952Y-72190476D01*
X180433333Y-72142857D01*
X180385714Y-72047619D01*
X180385714Y-71904761D01*
X180433333Y-71809523D01*
X180480952Y-71761904D01*
X180576190Y-71714285D01*
X180861904Y-71714285D01*
X180957142Y-71761904D01*
X181004761Y-71809523D01*
X181052380Y-71904761D01*
X181052380Y-72047619D01*
X180385714Y-70857142D02*
X181195238Y-70857142D01*
X181290476Y-70904761D01*
X181338095Y-70952380D01*
X181385714Y-71047619D01*
X181385714Y-71190476D01*
X181338095Y-71285714D01*
X181004761Y-70857142D02*
X181052380Y-70952380D01*
X181052380Y-71142857D01*
X181004761Y-71238095D01*
X180957142Y-71285714D01*
X180861904Y-71333333D01*
X180576190Y-71333333D01*
X180480952Y-71285714D01*
X180433333Y-71238095D01*
X180385714Y-71142857D01*
X180385714Y-70952380D01*
X180433333Y-70857142D01*
X181052380Y-70380952D02*
X180385714Y-70380952D01*
X180052380Y-70380952D02*
X180100000Y-70428571D01*
X180147619Y-70380952D01*
X180100000Y-70333333D01*
X180052380Y-70380952D01*
X180147619Y-70380952D01*
X181004761Y-69476190D02*
X181052380Y-69571428D01*
X181052380Y-69761904D01*
X181004761Y-69857142D01*
X180957142Y-69904761D01*
X180861904Y-69952380D01*
X180576190Y-69952380D01*
X180480952Y-69904761D01*
X180433333Y-69857142D01*
X180385714Y-69761904D01*
X180385714Y-69571428D01*
X180433333Y-69476190D01*
X181052380Y-69047619D02*
X180052380Y-69047619D01*
X180433333Y-69047619D02*
X180385714Y-68952380D01*
X180385714Y-68761904D01*
X180433333Y-68666666D01*
X180480952Y-68619047D01*
X180576190Y-68571428D01*
X180861904Y-68571428D01*
X180957142Y-68619047D01*
X181004761Y-68666666D01*
X181052380Y-68761904D01*
X181052380Y-68952380D01*
X181004761Y-69047619D01*
X181052380Y-68000000D02*
X181004761Y-68095238D01*
X180957142Y-68142857D01*
X180861904Y-68190476D01*
X180576190Y-68190476D01*
X180480952Y-68142857D01*
X180433333Y-68095238D01*
X180385714Y-68000000D01*
X180385714Y-67857142D01*
X180433333Y-67761904D01*
X180480952Y-67714285D01*
X180576190Y-67666666D01*
X180861904Y-67666666D01*
X180957142Y-67714285D01*
X181004761Y-67761904D01*
X181052380Y-67857142D01*
X181052380Y-68000000D01*
X180385714Y-67238095D02*
X181052380Y-67238095D01*
X180480952Y-67238095D02*
X180433333Y-67190476D01*
X180385714Y-67095238D01*
X180385714Y-66952380D01*
X180433333Y-66857142D01*
X180528571Y-66809523D01*
X181052380Y-66809523D01*
X181004761Y-65952380D02*
X181052380Y-66047619D01*
X181052380Y-66238095D01*
X181004761Y-66333333D01*
X180909523Y-66380952D01*
X180528571Y-66380952D01*
X180433333Y-66333333D01*
X180385714Y-66238095D01*
X180385714Y-66047619D01*
X180433333Y-65952380D01*
X180528571Y-65904761D01*
X180623809Y-65904761D01*
X180719047Y-66380952D01*
X180528571Y-64714285D02*
X180528571Y-64380952D01*
X181052380Y-64238095D02*
X181052380Y-64714285D01*
X180052380Y-64714285D01*
X180052380Y-64238095D01*
X180957142Y-63238095D02*
X181004761Y-63285714D01*
X181052380Y-63428571D01*
X181052380Y-63523809D01*
X181004761Y-63666666D01*
X180909523Y-63761904D01*
X180814285Y-63809523D01*
X180623809Y-63857142D01*
X180480952Y-63857142D01*
X180290476Y-63809523D01*
X180195238Y-63761904D01*
X180100000Y-63666666D01*
X180052380Y-63523809D01*
X180052380Y-63428571D01*
X180100000Y-63285714D01*
X180147619Y-63238095D01*
X181052380Y-62809523D02*
X180052380Y-62809523D01*
X180052380Y-62428571D01*
X180100000Y-62333333D01*
X180147619Y-62285714D01*
X180242857Y-62238095D01*
X180385714Y-62238095D01*
X180480952Y-62285714D01*
X180528571Y-62333333D01*
X180576190Y-62428571D01*
X180576190Y-62809523D01*
X180052380Y-61333333D02*
X180052380Y-61809523D01*
X180528571Y-61857142D01*
X180480952Y-61809523D01*
X180433333Y-61714285D01*
X180433333Y-61476190D01*
X180480952Y-61380952D01*
X180528571Y-61333333D01*
X180623809Y-61285714D01*
X180861904Y-61285714D01*
X180957142Y-61333333D01*
X181004761Y-61380952D01*
X181052380Y-61476190D01*
X181052380Y-61714285D01*
X181004761Y-61809523D01*
X180957142Y-61857142D01*
X181052380Y-59523809D02*
X180576190Y-59857142D01*
X181052380Y-60095238D02*
X180052380Y-60095238D01*
X180052380Y-59714285D01*
X180100000Y-59619047D01*
X180147619Y-59571428D01*
X180242857Y-59523809D01*
X180385714Y-59523809D01*
X180480952Y-59571428D01*
X180528571Y-59619047D01*
X180576190Y-59714285D01*
X180576190Y-60095238D01*
X181004761Y-58714285D02*
X181052380Y-58809523D01*
X181052380Y-59000000D01*
X181004761Y-59095238D01*
X180909523Y-59142857D01*
X180528571Y-59142857D01*
X180433333Y-59095238D01*
X180385714Y-59000000D01*
X180385714Y-58809523D01*
X180433333Y-58714285D01*
X180528571Y-58666666D01*
X180623809Y-58666666D01*
X180719047Y-59142857D01*
X180385714Y-58333333D02*
X181052380Y-58095238D01*
X180385714Y-57857142D01*
X180052380Y-57285714D02*
X180052380Y-57190476D01*
X180100000Y-57095238D01*
X180147619Y-57047619D01*
X180242857Y-57000000D01*
X180433333Y-56952380D01*
X180671428Y-56952380D01*
X180861904Y-57000000D01*
X180957142Y-57047619D01*
X181004761Y-57095238D01*
X181052380Y-57190476D01*
X181052380Y-57285714D01*
X181004761Y-57380952D01*
X180957142Y-57428571D01*
X180861904Y-57476190D01*
X180671428Y-57523809D01*
X180433333Y-57523809D01*
X180242857Y-57476190D01*
X180147619Y-57428571D01*
X180100000Y-57380952D01*
X180052380Y-57285714D01*
D11*
X115590000Y-61905000D02*
X113590000Y-61905000D01*
X97400000Y-62105000D02*
X109700000Y-62105000D01*
X97400000Y-78205000D02*
X97400000Y-62105000D01*
X109700000Y-78205000D02*
X97400000Y-78205000D01*
X118900000Y-78205000D02*
X112900000Y-78205000D01*
X118900000Y-62105000D02*
X118900000Y-78205000D01*
X112900000Y-62105000D02*
X118900000Y-62105000D01*
X175800000Y-81190000D02*
X174000000Y-81190000D01*
X174000000Y-84410000D02*
X176450000Y-84410000D01*
D12*
X175900000Y-85950000D02*
G75*
G03X175900000Y-85950000I-100000J0D01*
G01*
D11*
X173880000Y-85830000D02*
X174330000Y-85830000D01*
X173880000Y-86155000D02*
X173880000Y-85830000D01*
X175920000Y-87370000D02*
X175470000Y-87370000D01*
X175920000Y-87045000D02*
X175920000Y-87370000D01*
X173880000Y-87370000D02*
X174330000Y-87370000D01*
X173880000Y-87045000D02*
X173880000Y-87370000D01*
X175920000Y-87370000D02*
X175470000Y-87370000D01*
X175920000Y-87045000D02*
X175920000Y-87370000D01*
X175920000Y-87370000D02*
X175470000Y-87370000D01*
X175920000Y-87045000D02*
X175920000Y-87370000D01*
X163475000Y-81330000D02*
X163475000Y-81965000D01*
X162840000Y-81330000D02*
X163475000Y-81330000D01*
X166737221Y-67690000D02*
X167062779Y-67690000D01*
X166737221Y-68710000D02*
X167062779Y-68710000D01*
X175200000Y-68020000D02*
X174400000Y-68020000D01*
X175200000Y-64580000D02*
X174400000Y-64580000D01*
X175035000Y-70360000D02*
X175510000Y-70360000D01*
X175510000Y-70360000D02*
X175510000Y-70835000D01*
X170765000Y-75580000D02*
X170290000Y-75580000D01*
X170290000Y-75580000D02*
X170290000Y-75105000D01*
X175035000Y-75580000D02*
X175510000Y-75580000D01*
X175510000Y-75580000D02*
X175510000Y-75105000D01*
X170765000Y-70360000D02*
X170290000Y-70360000D01*
X125130000Y-67140000D02*
X125130000Y-68360000D01*
X123870000Y-67140000D02*
X123870000Y-67750000D01*
X129635000Y-56140000D02*
X130110000Y-56140000D01*
X130110000Y-56140000D02*
X130110000Y-56615000D01*
X123365000Y-63360000D02*
X122890000Y-63360000D01*
X122890000Y-63360000D02*
X122890000Y-62885000D01*
X129635000Y-63360000D02*
X130110000Y-63360000D01*
X130110000Y-63360000D02*
X130110000Y-62885000D01*
X123365000Y-56140000D02*
X122890000Y-56140000D01*
D13*
X124350000Y-88750000D02*
X125100000Y-88750000D01*
D11*
X176895000Y-99425000D02*
X176895000Y-94225000D01*
X120955000Y-99425000D02*
X176895000Y-99425000D01*
X118355000Y-94225000D02*
X176895000Y-94225000D01*
X120955000Y-99425000D02*
X120955000Y-96825000D01*
X120955000Y-96825000D02*
X118355000Y-96825000D01*
X118355000Y-96825000D02*
X118355000Y-94225000D01*
X119685000Y-99425000D02*
X118355000Y-99425000D01*
X118355000Y-99425000D02*
X118355000Y-98095000D01*
X118355000Y-51165000D02*
X118355000Y-49835000D01*
X119685000Y-51165000D02*
X118355000Y-51165000D01*
X118355000Y-48565000D02*
X118355000Y-45965000D01*
X120955000Y-48565000D02*
X118355000Y-48565000D01*
X120955000Y-51165000D02*
X120955000Y-48565000D01*
X118355000Y-45965000D02*
X176895000Y-45965000D01*
X120955000Y-51165000D02*
X176895000Y-51165000D01*
X176895000Y-51165000D02*
X176895000Y-45965000D01*
X133950000Y-79900000D02*
X141650000Y-79900000D01*
X141650000Y-79900000D02*
X141650000Y-91100000D01*
X141650000Y-91100000D02*
X133950000Y-91100000D01*
X133950000Y-91100000D02*
X133950000Y-79900000D01*
X133750000Y-80400000D02*
X133750000Y-79700000D01*
X133750000Y-79700000D02*
X134450000Y-79700000D01*
X123862779Y-72590000D02*
X123537221Y-72590000D01*
X123862779Y-73610000D02*
X123537221Y-73610000D01*
X121524721Y-76990000D02*
X121850279Y-76990000D01*
X121524721Y-78010000D02*
X121850279Y-78010000D01*
X121850279Y-91390000D02*
X121524721Y-91390000D01*
X121850279Y-92410000D02*
X121524721Y-92410000D01*
X118149721Y-92410000D02*
X118475279Y-92410000D01*
X118149721Y-91390000D02*
X118475279Y-91390000D01*
X127137221Y-72590000D02*
X127462779Y-72590000D01*
X127137221Y-73610000D02*
X127462779Y-73610000D01*
X115790000Y-56162779D02*
X115790000Y-55837221D01*
X116810000Y-56162779D02*
X116810000Y-55837221D01*
X121524721Y-79610000D02*
X121850279Y-79610000D01*
X121524721Y-78590000D02*
X121850279Y-78590000D01*
X125437221Y-80490000D02*
X125762779Y-80490000D01*
X125437221Y-81510000D02*
X125762779Y-81510000D01*
X166737221Y-67010000D02*
X167062779Y-67010000D01*
X166737221Y-65990000D02*
X167062779Y-65990000D01*
X126610000Y-68462779D02*
X126610000Y-68137221D01*
X125590000Y-68462779D02*
X125590000Y-68137221D01*
X123410000Y-68937221D02*
X123410000Y-69262779D01*
X122390000Y-68937221D02*
X122390000Y-69262779D01*
X118837221Y-53910000D02*
X119162779Y-53910000D01*
X118837221Y-52890000D02*
X119162779Y-52890000D01*
X125137221Y-65390000D02*
X125462779Y-65390000D01*
X125137221Y-66410000D02*
X125462779Y-66410000D01*
X125762779Y-87190000D02*
X125437221Y-87190000D01*
X125762779Y-88210000D02*
X125437221Y-88210000D01*
X125762779Y-85690000D02*
X125437221Y-85690000D01*
X125762779Y-86710000D02*
X125437221Y-86710000D01*
X152990000Y-81737221D02*
X152990000Y-82062779D01*
X154010000Y-81737221D02*
X154010000Y-82062779D01*
X151337221Y-93410000D02*
X151662779Y-93410000D01*
X151337221Y-92390000D02*
X151662779Y-92390000D01*
X104135000Y-51222500D02*
X101850000Y-51222500D01*
X104135000Y-52692500D02*
X104135000Y-51222500D01*
X101850000Y-52692500D02*
X104135000Y-52692500D01*
X101850000Y-54442500D02*
X104135000Y-54442500D01*
X104135000Y-54442500D02*
X104135000Y-52972500D01*
X104135000Y-52972500D02*
X101850000Y-52972500D01*
X104135000Y-54722500D02*
X101850000Y-54722500D01*
X104135000Y-56192500D02*
X104135000Y-54722500D01*
X101850000Y-56192500D02*
X104135000Y-56192500D01*
X101850000Y-57942500D02*
X104135000Y-57942500D01*
X104135000Y-57942500D02*
X104135000Y-56472500D01*
X104135000Y-56472500D02*
X101850000Y-56472500D01*
X163810000Y-70537221D02*
X163810000Y-70862779D01*
X162790000Y-70537221D02*
X162790000Y-70862779D01*
X164390000Y-70537221D02*
X164390000Y-70862779D01*
X165410000Y-70537221D02*
X165410000Y-70862779D01*
X161137221Y-65990000D02*
X161462779Y-65990000D01*
X161137221Y-67010000D02*
X161462779Y-67010000D01*
X125450000Y-52690000D02*
X123550000Y-52690000D01*
X124050000Y-55010000D02*
X125450000Y-55010000D01*
X118571078Y-89290000D02*
X118053922Y-89290000D01*
X118571078Y-90710000D02*
X118053922Y-90710000D01*
X118071078Y-81710000D02*
X117553922Y-81710000D01*
X118071078Y-80290000D02*
X117553922Y-80290000D01*
X121428922Y-81710000D02*
X121946078Y-81710000D01*
X121428922Y-80290000D02*
X121946078Y-80290000D01*
X121428922Y-89290000D02*
X121946078Y-89290000D01*
X121428922Y-90710000D02*
X121946078Y-90710000D01*
X109700000Y-56050000D02*
X105300000Y-56050000D01*
X105300000Y-56050000D02*
X105300000Y-56170000D01*
X105300000Y-57180000D02*
X105300000Y-58320000D01*
X105300000Y-59330000D02*
X105300000Y-59450000D01*
X105300000Y-59450000D02*
X109700000Y-59450000D01*
X109700000Y-59450000D02*
X109700000Y-59330000D01*
X109700000Y-58320000D02*
X109700000Y-57180000D01*
X109700000Y-56170000D02*
X109700000Y-56050000D01*
X105300000Y-50145000D02*
X105300000Y-50265000D01*
X105300000Y-47995000D02*
X105300000Y-49135000D01*
X105300000Y-46865000D02*
X105300000Y-46985000D01*
X109700000Y-46865000D02*
X105300000Y-46865000D01*
X109700000Y-46985000D02*
X109700000Y-46865000D01*
X109700000Y-49135000D02*
X109700000Y-47995000D01*
X109700000Y-50265000D02*
X109700000Y-50145000D01*
X105300000Y-50265000D02*
X109700000Y-50265000D01*
X166000000Y-73370000D02*
X168800000Y-73370000D01*
X168800000Y-73370000D02*
X168800000Y-70070000D01*
X143850000Y-79700000D02*
X144550000Y-79700000D01*
X143850000Y-80400000D02*
X143850000Y-79700000D01*
X144050000Y-91100000D02*
X144050000Y-79900000D01*
X151750000Y-91100000D02*
X144050000Y-91100000D01*
X151750000Y-79900000D02*
X151750000Y-91100000D01*
X144050000Y-79900000D02*
X151750000Y-79900000D01*
X107900000Y-54877500D02*
X107100000Y-54877500D01*
X107900000Y-51437500D02*
X107100000Y-51437500D01*
X117865000Y-88110000D02*
X117390000Y-88110000D01*
X117390000Y-88110000D02*
X117390000Y-87635000D01*
X122135000Y-82890000D02*
X122610000Y-82890000D01*
X122610000Y-82890000D02*
X122610000Y-83365000D01*
X117865000Y-82890000D02*
X117390000Y-82890000D01*
X117390000Y-82890000D02*
X117390000Y-83365000D01*
X122135000Y-88110000D02*
X122610000Y-88110000D01*
X164710000Y-67130000D02*
X163490000Y-67130000D01*
X164710000Y-65870000D02*
X164100000Y-65870000D01*
X163490000Y-68830000D02*
X164100000Y-68830000D01*
X163490000Y-67570000D02*
X164710000Y-67570000D01*
X155862779Y-86210000D02*
X155537221Y-86210000D01*
X155862779Y-85190000D02*
X155537221Y-85190000D01*
X159137221Y-85190000D02*
X159462779Y-85190000D01*
X159137221Y-86210000D02*
X159462779Y-86210000D01*
X152220000Y-75800000D02*
X152220000Y-76600000D01*
X148780000Y-75800000D02*
X148780000Y-76600000D01*
X117420000Y-56760000D02*
X118350000Y-56760000D01*
X120580000Y-56760000D02*
X119650000Y-56760000D01*
X120580000Y-56760000D02*
X120580000Y-54600000D01*
X117420000Y-56760000D02*
X117420000Y-55300000D01*
X123870000Y-70260000D02*
X123870000Y-69040000D01*
X125130000Y-70260000D02*
X125130000Y-69650000D01*
X152990000Y-89262779D02*
X152990000Y-88937221D01*
X154010000Y-89262779D02*
X154010000Y-88937221D01*
X115800000Y-87800000D02*
X113800000Y-87800000D01*
X113800000Y-87800000D02*
X113800000Y-91650000D01*
X115800000Y-87800000D02*
X115800000Y-91650000D01*
X125437221Y-82990000D02*
X125762779Y-82990000D01*
X125437221Y-84010000D02*
X125762779Y-84010000D01*
X115310000Y-86162779D02*
X115310000Y-85837221D01*
X114290000Y-86162779D02*
X114290000Y-85837221D01*
X123862779Y-72010000D02*
X123537221Y-72010000D01*
X123862779Y-70990000D02*
X123537221Y-70990000D01*
X177637221Y-75190000D02*
X177962779Y-75190000D01*
X177637221Y-76210000D02*
X177962779Y-76210000D01*
X111900000Y-85890000D02*
X109450000Y-85890000D01*
X110100000Y-89110000D02*
X111900000Y-89110000D01*
X161137221Y-67690000D02*
X161462779Y-67690000D01*
X161137221Y-68710000D02*
X161462779Y-68710000D01*
D10*
X134250000Y-60500000D02*
X134250000Y-56250000D01*
X134250000Y-56250000D02*
X138500000Y-56250000D01*
X134250000Y-60500000D02*
X134250000Y-56250000D01*
X134250000Y-56250000D02*
X138500000Y-56250000D01*
X151550000Y-60500000D02*
X151550000Y-56250000D01*
X151550000Y-56250000D02*
X147300000Y-56250000D01*
X134250000Y-60500000D02*
X134250000Y-56250000D01*
X134250000Y-56250000D02*
X138500000Y-56250000D01*
X151550000Y-69300000D02*
X151550000Y-73550000D01*
X151550000Y-73550000D02*
X147300000Y-73550000D01*
X134250000Y-69300000D02*
X134250000Y-72400000D01*
X134250000Y-72400000D02*
X135400000Y-73550000D01*
X135400000Y-73550000D02*
X138500000Y-73550000D01*
D12*
X134500000Y-73400000D02*
G75*
G03X134500000Y-73400000I-100000J0D01*
G01*
D13*
X110000000Y-82500000D02*
X110750000Y-82500000D01*
D11*
X169443503Y-78963604D02*
X168524264Y-78044365D01*
X167463604Y-80943503D02*
X166756497Y-80236396D01*
D10*
X172350000Y-91650000D02*
X172350000Y-91125000D01*
X175650000Y-88350000D02*
X175650000Y-88875000D01*
X172350000Y-88350000D02*
X172350000Y-88875000D01*
X175650000Y-91650000D02*
X175125000Y-91650000D01*
X175650000Y-88350000D02*
X175125000Y-88350000D01*
X172350000Y-88350000D02*
X172875000Y-88350000D01*
X172350000Y-91650000D02*
X172875000Y-91650000D01*
D11*
X127137221Y-70990000D02*
X127462779Y-70990000D01*
X127137221Y-72010000D02*
X127462779Y-72010000D01*
X156615000Y-90610000D02*
X156140000Y-90610000D01*
X156140000Y-90610000D02*
X156140000Y-90135000D01*
X158885000Y-87390000D02*
X159360000Y-87390000D01*
X159360000Y-87390000D02*
X159360000Y-87865000D01*
X156615000Y-87390000D02*
X156140000Y-87390000D01*
X156140000Y-87390000D02*
X156140000Y-87865000D01*
X158885000Y-90610000D02*
X159360000Y-90610000D01*
X153400000Y-79900000D02*
X153400000Y-73300000D01*
X158600000Y-78900000D02*
X158600000Y-73900000D01*
X128435000Y-79300000D02*
X128435000Y-75390000D01*
X128435000Y-75390000D02*
X126565000Y-75390000D01*
X126565000Y-75390000D02*
X126565000Y-79300000D01*
X124265000Y-75390000D02*
X124265000Y-79300000D01*
X126135000Y-75390000D02*
X124265000Y-75390000D01*
X126135000Y-79300000D02*
X126135000Y-75390000D01*
X110741422Y-80790000D02*
X111258578Y-80790000D01*
X110741422Y-82210000D02*
X111258578Y-82210000D01*
X182158578Y-76410000D02*
X181641422Y-76410000D01*
X182158578Y-74990000D02*
X181641422Y-74990000D01*
X109185000Y-97785000D02*
X109185000Y-95865000D01*
X106500000Y-97785000D02*
X109185000Y-97785000D01*
X109185000Y-95865000D02*
X106500000Y-95865000D01*
D10*
X173252380Y-87576190D02*
X172252380Y-87576190D01*
X173157142Y-86528571D02*
X173204761Y-86576190D01*
X173252380Y-86719047D01*
X173252380Y-86814285D01*
X173204761Y-86957142D01*
X173109523Y-87052380D01*
X173014285Y-87100000D01*
X172823809Y-87147619D01*
X172680952Y-87147619D01*
X172490476Y-87100000D01*
X172395238Y-87052380D01*
X172300000Y-86957142D01*
X172252380Y-86814285D01*
X172252380Y-86719047D01*
X172300000Y-86576190D01*
X172347619Y-86528571D01*
X172252380Y-86195238D02*
X172252380Y-85528571D01*
X173252380Y-85957142D01*
X171923809Y-69552380D02*
X171923809Y-68552380D01*
X172971428Y-69457142D02*
X172923809Y-69504761D01*
X172780952Y-69552380D01*
X172685714Y-69552380D01*
X172542857Y-69504761D01*
X172447619Y-69409523D01*
X172400000Y-69314285D01*
X172352380Y-69123809D01*
X172352380Y-68980952D01*
X172400000Y-68790476D01*
X172447619Y-68695238D01*
X172542857Y-68600000D01*
X172685714Y-68552380D01*
X172780952Y-68552380D01*
X172923809Y-68600000D01*
X172971428Y-68647619D01*
X173876190Y-68552380D02*
X173400000Y-68552380D01*
X173352380Y-69028571D01*
X173400000Y-68980952D01*
X173495238Y-68933333D01*
X173733333Y-68933333D01*
X173828571Y-68980952D01*
X173876190Y-69028571D01*
X173923809Y-69123809D01*
X173923809Y-69361904D01*
X173876190Y-69457142D01*
X173828571Y-69504761D01*
X173733333Y-69552380D01*
X173495238Y-69552380D01*
X173400000Y-69504761D01*
X173352380Y-69457142D01*
X121952380Y-61202380D02*
X120952380Y-61202380D01*
X121857142Y-60154761D02*
X121904761Y-60202380D01*
X121952380Y-60345238D01*
X121952380Y-60440476D01*
X121904761Y-60583333D01*
X121809523Y-60678571D01*
X121714285Y-60726190D01*
X121523809Y-60773809D01*
X121380952Y-60773809D01*
X121190476Y-60726190D01*
X121095238Y-60678571D01*
X121000000Y-60583333D01*
X120952380Y-60440476D01*
X120952380Y-60345238D01*
X121000000Y-60202380D01*
X121047619Y-60154761D01*
X121952380Y-59202380D02*
X121952380Y-59773809D01*
X121952380Y-59488095D02*
X120952380Y-59488095D01*
X121095238Y-59583333D01*
X121190476Y-59678571D01*
X121238095Y-59773809D01*
X121285714Y-58345238D02*
X121952380Y-58345238D01*
X120904761Y-58583333D02*
X121619047Y-58821428D01*
X121619047Y-58202380D01*
X117807380Y-97563095D02*
X116807380Y-97563095D01*
X116807380Y-97182142D01*
X116855000Y-97086904D01*
X116902619Y-97039285D01*
X116997857Y-96991666D01*
X117140714Y-96991666D01*
X117235952Y-97039285D01*
X117283571Y-97086904D01*
X117331190Y-97182142D01*
X117331190Y-97563095D01*
X117807380Y-96515476D02*
X117807380Y-96325000D01*
X117759761Y-96229761D01*
X117712142Y-96182142D01*
X117569285Y-96086904D01*
X117378809Y-96039285D01*
X116997857Y-96039285D01*
X116902619Y-96086904D01*
X116855000Y-96134523D01*
X116807380Y-96229761D01*
X116807380Y-96420238D01*
X116855000Y-96515476D01*
X116902619Y-96563095D01*
X116997857Y-96610714D01*
X117235952Y-96610714D01*
X117331190Y-96563095D01*
X117378809Y-96515476D01*
X117426428Y-96420238D01*
X117426428Y-96229761D01*
X117378809Y-96134523D01*
X117331190Y-96086904D01*
X117235952Y-96039285D01*
X117807380Y-49303095D02*
X116807380Y-49303095D01*
X116807380Y-48922142D01*
X116855000Y-48826904D01*
X116902619Y-48779285D01*
X116997857Y-48731666D01*
X117140714Y-48731666D01*
X117235952Y-48779285D01*
X117283571Y-48826904D01*
X117331190Y-48922142D01*
X117331190Y-49303095D01*
X117235952Y-48160238D02*
X117188333Y-48255476D01*
X117140714Y-48303095D01*
X117045476Y-48350714D01*
X116997857Y-48350714D01*
X116902619Y-48303095D01*
X116855000Y-48255476D01*
X116807380Y-48160238D01*
X116807380Y-47969761D01*
X116855000Y-47874523D01*
X116902619Y-47826904D01*
X116997857Y-47779285D01*
X117045476Y-47779285D01*
X117140714Y-47826904D01*
X117188333Y-47874523D01*
X117235952Y-47969761D01*
X117235952Y-48160238D01*
X117283571Y-48255476D01*
X117331190Y-48303095D01*
X117426428Y-48350714D01*
X117616904Y-48350714D01*
X117712142Y-48303095D01*
X117759761Y-48255476D01*
X117807380Y-48160238D01*
X117807380Y-47969761D01*
X117759761Y-47874523D01*
X117712142Y-47826904D01*
X117616904Y-47779285D01*
X117426428Y-47779285D01*
X117331190Y-47826904D01*
X117283571Y-47874523D01*
X117235952Y-47969761D01*
X136823809Y-79472380D02*
X136823809Y-78472380D01*
X137871428Y-79377142D02*
X137823809Y-79424761D01*
X137680952Y-79472380D01*
X137585714Y-79472380D01*
X137442857Y-79424761D01*
X137347619Y-79329523D01*
X137300000Y-79234285D01*
X137252380Y-79043809D01*
X137252380Y-78900952D01*
X137300000Y-78710476D01*
X137347619Y-78615238D01*
X137442857Y-78520000D01*
X137585714Y-78472380D01*
X137680952Y-78472380D01*
X137823809Y-78520000D01*
X137871428Y-78567619D01*
X138204761Y-78472380D02*
X138823809Y-78472380D01*
X138490476Y-78853333D01*
X138633333Y-78853333D01*
X138728571Y-78900952D01*
X138776190Y-78948571D01*
X138823809Y-79043809D01*
X138823809Y-79281904D01*
X138776190Y-79377142D01*
X138728571Y-79424761D01*
X138633333Y-79472380D01*
X138347619Y-79472380D01*
X138252380Y-79424761D01*
X138204761Y-79377142D01*
X165666666Y-58452380D02*
X165666666Y-59166666D01*
X165619047Y-59309523D01*
X165523809Y-59404761D01*
X165380952Y-59452380D01*
X165285714Y-59452380D01*
X166666666Y-59452380D02*
X166095238Y-59452380D01*
X166380952Y-59452380D02*
X166380952Y-58452380D01*
X166285714Y-58595238D01*
X166190476Y-58690476D01*
X166095238Y-58738095D01*
X146923809Y-79472380D02*
X146923809Y-78472380D01*
X147971428Y-79377142D02*
X147923809Y-79424761D01*
X147780952Y-79472380D01*
X147685714Y-79472380D01*
X147542857Y-79424761D01*
X147447619Y-79329523D01*
X147400000Y-79234285D01*
X147352380Y-79043809D01*
X147352380Y-78900952D01*
X147400000Y-78710476D01*
X147447619Y-78615238D01*
X147542857Y-78520000D01*
X147685714Y-78472380D01*
X147780952Y-78472380D01*
X147923809Y-78520000D01*
X147971428Y-78567619D01*
X148352380Y-78567619D02*
X148400000Y-78520000D01*
X148495238Y-78472380D01*
X148733333Y-78472380D01*
X148828571Y-78520000D01*
X148876190Y-78567619D01*
X148923809Y-78662857D01*
X148923809Y-78758095D01*
X148876190Y-78900952D01*
X148304761Y-79472380D01*
X148923809Y-79472380D01*
X116752380Y-86476190D02*
X115752380Y-86476190D01*
X116657142Y-85428571D02*
X116704761Y-85476190D01*
X116752380Y-85619047D01*
X116752380Y-85714285D01*
X116704761Y-85857142D01*
X116609523Y-85952380D01*
X116514285Y-86000000D01*
X116323809Y-86047619D01*
X116180952Y-86047619D01*
X115990476Y-86000000D01*
X115895238Y-85952380D01*
X115800000Y-85857142D01*
X115752380Y-85714285D01*
X115752380Y-85619047D01*
X115800000Y-85476190D01*
X115847619Y-85428571D01*
X116085714Y-84571428D02*
X116752380Y-84571428D01*
X115704761Y-84809523D02*
X116419047Y-85047619D01*
X116419047Y-84428571D01*
X133852380Y-65876190D02*
X132852380Y-65876190D01*
X133757142Y-64828571D02*
X133804761Y-64876190D01*
X133852380Y-65019047D01*
X133852380Y-65114285D01*
X133804761Y-65257142D01*
X133709523Y-65352380D01*
X133614285Y-65400000D01*
X133423809Y-65447619D01*
X133280952Y-65447619D01*
X133090476Y-65400000D01*
X132995238Y-65352380D01*
X132900000Y-65257142D01*
X132852380Y-65114285D01*
X132852380Y-65019047D01*
X132900000Y-64876190D01*
X132947619Y-64828571D01*
X133852380Y-63876190D02*
X133852380Y-64447619D01*
X133852380Y-64161904D02*
X132852380Y-64161904D01*
X132995238Y-64257142D01*
X133090476Y-64352380D01*
X133138095Y-64447619D01*
X173023809Y-93352380D02*
X173023809Y-92352380D01*
X174071428Y-93257142D02*
X174023809Y-93304761D01*
X173880952Y-93352380D01*
X173785714Y-93352380D01*
X173642857Y-93304761D01*
X173547619Y-93209523D01*
X173500000Y-93114285D01*
X173452380Y-92923809D01*
X173452380Y-92780952D01*
X173500000Y-92590476D01*
X173547619Y-92495238D01*
X173642857Y-92400000D01*
X173785714Y-92352380D01*
X173880952Y-92352380D01*
X174023809Y-92400000D01*
X174071428Y-92447619D01*
X174642857Y-92780952D02*
X174547619Y-92733333D01*
X174500000Y-92685714D01*
X174452380Y-92590476D01*
X174452380Y-92542857D01*
X174500000Y-92447619D01*
X174547619Y-92400000D01*
X174642857Y-92352380D01*
X174833333Y-92352380D01*
X174928571Y-92400000D01*
X174976190Y-92447619D01*
X175023809Y-92542857D01*
X175023809Y-92590476D01*
X174976190Y-92685714D01*
X174928571Y-92733333D01*
X174833333Y-92780952D01*
X174642857Y-92780952D01*
X174547619Y-92828571D01*
X174500000Y-92876190D01*
X174452380Y-92971428D01*
X174452380Y-93161904D01*
X174500000Y-93257142D01*
X174547619Y-93304761D01*
X174642857Y-93352380D01*
X174833333Y-93352380D01*
X174928571Y-93304761D01*
X174976190Y-93257142D01*
X175023809Y-93161904D01*
X175023809Y-92971428D01*
X174976190Y-92876190D01*
X174928571Y-92828571D01*
X174833333Y-92780952D01*
X156773809Y-92252380D02*
X156773809Y-91252380D01*
X157821428Y-92157142D02*
X157773809Y-92204761D01*
X157630952Y-92252380D01*
X157535714Y-92252380D01*
X157392857Y-92204761D01*
X157297619Y-92109523D01*
X157250000Y-92014285D01*
X157202380Y-91823809D01*
X157202380Y-91680952D01*
X157250000Y-91490476D01*
X157297619Y-91395238D01*
X157392857Y-91300000D01*
X157535714Y-91252380D01*
X157630952Y-91252380D01*
X157773809Y-91300000D01*
X157821428Y-91347619D01*
X158297619Y-92252380D02*
X158488095Y-92252380D01*
X158583333Y-92204761D01*
X158630952Y-92157142D01*
X158726190Y-92014285D01*
X158773809Y-91823809D01*
X158773809Y-91442857D01*
X158726190Y-91347619D01*
X158678571Y-91300000D01*
X158583333Y-91252380D01*
X158392857Y-91252380D01*
X158297619Y-91300000D01*
X158250000Y-91347619D01*
X158202380Y-91442857D01*
X158202380Y-91680952D01*
X158250000Y-91776190D01*
X158297619Y-91823809D01*
X158392857Y-91871428D01*
X158583333Y-91871428D01*
X158678571Y-91823809D01*
X158726190Y-91776190D01*
X158773809Y-91680952D01*
M02*
